# xmcd
#
# Track frame offsets:
#	150
#	9082
#	20237
#	29467
#	40127
#	53432
#	65797
#	75727
#	86107
#	100780
#	115665
#	126040
#	134665
#	144972
#	156492
#	167567
#	183080
#	192890
#	204807
#	218257
#
# Disc length: 3064
#
# Revision: 1
# Processed by: cddbd v1.5.1PL0 Copyright (c) Steve Scherf et al.
# Submitted via: ExactAudioCopy v0.90b4
# Normalized: r0:DSETVAR1
#
DISCID=030bf614
DTITLE=Various Artist - Easy-Listening Country All-Time Instrumental Favorites
DYEAR=1995
DGENRE=Instrumental
TTITLE0=Danny Davis and the Nashville Brass - Wabash Cannonball
TTITLE1=Floyd Cramer - Last Date
TTITLE2=Boots Randolph - Yakety Sax
TTITLE3=Floyd Cramer - San Antonio Rose
TTITLE4=Hank Thomson and His Brazos Valley Boys with Merle Travis - Wildwood Flower
TTITLE5=Lester Flatt and Earl Scruggs - Foggy Mountain Breakdown
TTITLE6=Floyd Cramer - On The Rebound
TTITLE7=The Atkins String Co. - The Night Atlanta Burned
TTITLE8=Asleep at the Wheel - Bump Bounce Boogie
TTITLE9=Eric Weissberg and Steve Mandell - Dueling Banjos
TTITLE10=Chet Atkins and His Gallopin' Guitar - Mr. Sandman
TTITLE11=Danny Davis and the Nashville Brass - Columbus Stockade Blues
TTITLE12=Hank Snow and Chet Atkins - Silver Bell
TTITLE13=Duane Eddy - Rebel Rouser
TTITLE14=Del Wood - Down Yonder
TTITLE15=Arthur "Guitar Boogie" Smith and His Cracker-Jacks - Guitar Boogie
TTITLE16=Bill Monroe and The Bluegrass Boys - Blue Moon of Kentucky
TTITLE17=Bob Willis and His Texas Playboys - Texas Playboy Rag
TTITLE18=Leon McAuliffe and His Cimarron Boys - Panhandle Rag
TTITLE19=Don Reno and Bobby Thompson with The Cripple Creek Quartet - Under the Double Eagle
EXTD=Reader's Digest
EXTT0=
EXTT1=
EXTT2=
EXTT3=
EXTT4=
EXTT5=
EXTT6=
EXTT7=
EXTT8=
EXTT9=
EXTT10=
EXTT11=
EXTT12=
EXTT13=
EXTT14=
EXTT15=
EXTT16=
EXTT17=
EXTT18=
EXTT19=
PLAYORDER=
